<?xml version="1.0" standalone="no"?><!DOCTYPE svg PUBLIC "-//W3C//DTD SVG 1.1//EN" "http://www.w3.org/Graphics/SVG/1.1/DTD/svg11.dtd"><svg t="1576823152524" class="icon" viewBox="0 0 1024 1024" version="1.1" xmlns="http://www.w3.org/2000/svg" p-id="2578" xmlns:xlink="http://www.w3.org/1999/xlink" width="200" height="200"><defs><style type="text/css"></style></defs><path d="M512 109.1584a182.7328 182.7328 0 0 1 182.528 182.4768c0 100.608-81.9712 182.4768-182.528 182.4768S329.5232 392.2432 329.5232 291.6352A182.6816 182.6816 0 0 1 512 109.1584M512 51.2a240.4864 240.4864 0 1 0-0.0512 481.024A240.4864 240.4864 0 0 0 512 51.2z m116.0192 920.3712H395.9808c-102.6048 0-255.6416 21.8624-279.552-120.3712h-3.1744v-40.192h3.5328c21.0944-135.6288 135.2192-228.9152 279.2448-228.9152h231.9872c145.408 0 260.4032 95.232 279.7568 228.9152h2.9184v40.2432h-3.9424c-26.1632 142.1312-177.152 120.32-278.7328 120.32z m-232.0384-331.4176c-120.7296 0-215.04 81.2032-224 193.0752 7.7824 85.7088 81.5104 80.384 224 80.384h231.9872c142.4896 0 216.1664 5.3248 223.9488-85.1968-9.0112-107.0592-103.2704-188.2624-223.9488-188.2624H395.9808z m0 0" p-id="2579"></path></svg>