<?xml version="1.0" standalone="no"?><!DOCTYPE svg PUBLIC "-//W3C//DTD SVG 1.1//EN" "http://www.w3.org/Graphics/SVG/1.1/DTD/svg11.dtd"><svg t="1562744059896" class="icon" viewBox="0 0 1024 1024" version="1.1" xmlns="http://www.w3.org/2000/svg" p-id="2887" xmlns:xlink="http://www.w3.org/1999/xlink" width="200" height="200"><defs><style type="text/css"></style></defs><path d="M848.2 216.6H386.1l-3.2-8.7c-11.1-30.1-40-50.3-72.1-50.3h-136c-42.3 0-76.8 34.4-76.8 76.8v602.5c0 9.8 7.9 17.7 17.7 17.7h791.5c9.8 0 17.7-7.9 17.7-17.7V293.4c0.1-42.4-34.3-76.8-76.7-76.8z m0 35.4c22.8 0 41.3 18.6 41.3 41.3v53.5c-12-7.7-26.1-12.2-41.3-12.2H458.3c-17.3 0-32.9-10.9-38.8-27.1L399.1 252h449.1zM133.5 819.1v-70.9h490.3c9.8 0 17.7-7.9 17.7-17.7s-7.9-17.7-17.7-17.7H133.5V234.3c0-22.8 18.6-41.3 41.3-41.3h136c17.3 0 32.9 10.9 38.8 27.1l36.6 99.8c11.1 30.1 40 50.3 72.1 50.3h389.9c22.8 0 41.3 18.6 41.3 41.3v301.3H741.9c-9.8 0-17.7 7.9-17.7 17.7s7.9 17.7 17.7 17.7h147.7v70.9H133.5z" p-id="2888"></path></svg>