<?xml version="1.0" standalone="no"?><!DOCTYPE svg PUBLIC "-//W3C//DTD SVG 1.1//EN" "http://www.w3.org/Graphics/SVG/1.1/DTD/svg11.dtd"><svg t="1566292672496" class="icon" viewBox="0 0 1024 1024" version="1.1" xmlns="http://www.w3.org/2000/svg" p-id="2076" xmlns:xlink="http://www.w3.org/1999/xlink" width="200" height="200"><defs><style type="text/css"></style></defs><path d="M318.2 332.8h59.9V451h-59.9zM318.2 500.2h59.9v127.1h-59.9z" p-id="2077"></path><path d="M512 64C264.6 64 64 264.6 64 512s200.6 448 448 448 448-200.6 448-448S759.4 64 512 64zM318.2 721.4h-52.1V281.3h163.5v397H318.2v43.1z m439.6-342.1H526.6v117c-2.2 113.5-27.6 205-76.2 274.4l-42-37.5c40.7-56.7 62.2-135.7 64.4-236.9V327.8h126c-7.8-23.5-16.8-45.4-26.9-65.5l55.4-9c8.6 22.4 17 47.2 25.2 74.5h105.3v51.5z" p-id="2078"></path></svg>