<?xml version="1.0" standalone="no"?><!DOCTYPE svg PUBLIC "-//W3C//DTD SVG 1.1//EN" "http://www.w3.org/Graphics/SVG/1.1/DTD/svg11.dtd"><svg t="1566192114507" class="icon" viewBox="0 0 1024 1024" version="1.1" xmlns="http://www.w3.org/2000/svg" p-id="3552" xmlns:xlink="http://www.w3.org/1999/xlink" width="200" height="200"><defs><style type="text/css"></style></defs><path d="M832.711237 839.755865c-1.264421 0.903158-0.180632-0.180632-1.083789 1.083789-3.793262 2.34821-5.780208 5.96084-8.850944 8.850944l-21.133886 21.133886c-22.217675 21.856412-44.43535 43.893456-66.653025 65.749868-9.934733 10.476627-19.869466 20.772623-29.98483 31.24925-16.076204 11.379785-18.424413 4.877051-34.681249-11.560416-3.070736-3.070736-25.107779-27.094726-25.107779-27.094726 21.133886-20.953255 19.146939-18.785676 29.623566-29.442935 25.469042-26.010937 52.202505-50.757453 77.852179-76.76839l22.217675-22.217675c3.251367-3.251367-129.69342 128.429-129.69342 128.429-3.251367-2.528841-6.683366-6.683366-9.934733-9.934733L614.147116 898.099841c-22.578938-22.578938-45.157876-45.338508-67.736814-67.917446-13.005468-13.005468 0.541895 7.405892-4.877051-12.824836-4.154525-15.534309 10.115364-28.901041 17.701887-33.055566 3.431999-1.806315 8.128418-1.083789 11.018522-3.431998 28.359146 0 37.029458 14.45052 50.938085 28.539777 24.746516 24.565885 17.882519 17.340624 42.629035 41.90651 6.322103 6.322103 29.081672 29.98483 29.442935 30.165461 0 0 223.621803-223.26054 265.528312-265.528312 15.895572-11.379785 39.919563-4.696419 48.770506 7.767155 7.044629 10.115364 7.044629 30.165461 0 40.100194l-127.525842 126.983947c0.903158 1.264421-0.180632 0.180632 1.083789 1.083789" fill="" p-id="3553"></path><path d="M289.732933 678.632563h212.603281c16.79873 0 30.346093 13.547363 30.346093 30.346093s-13.547363 30.346093-30.346093 30.346093H289.732933c-16.79873 0-30.346093-13.547363-30.346092-30.346093s13.547363-30.346093 30.346092-30.346093z m0 0M684.593403 314.118187H289.732933c-16.79873 0-30.346093-13.547363-30.346092-30.346093s13.547363-30.346093 30.346092-30.346093H684.593403c16.79873 0 30.346093 13.547363 30.346093 30.346093 0.180632 16.618098-13.547363 30.346093-30.346093 30.346093z m0 0" fill="" p-id="3554"></path><path d="M684.593403 526.721468H289.732933c-16.79873 0-30.346093-13.547363-30.346092-30.346093s13.547363-30.346093 30.346092-30.346093H684.593403c16.79873 0 30.346093 13.547363 30.346093 30.346093 0.180632 16.79873-13.547363 30.346093-30.346093 30.346093z m0 0" fill="" p-id="3555"></path><path d="M897.016052 150.827306c0-20.230729 0.722526-40.82272-7.586523-52.383136-9.212207-12.824837-30.887987-11.199153-53.105662-11.199153H135.292997c-22.037044 0-42.990298-1.625684-52.202505 11.199153-8.309049 11.560416-6.683366 32.152408-6.683366 52.383136v687.122244c0 22.217675-1.625684 52.744399 11.018522 61.775975 10.657259 7.586523 23.843359 7.586523 42.087141 7.586523h351.508908v0.903158c0.541895 0 1.083789-0.361263 1.625683-0.361264 16.79873 0 30.346093 13.547363 30.346093 30.346093s-13.547363 30.346093-30.346093 30.346093c-4.515788 0-8.670312-1.083789-12.644205-2.890104H129.512789c-11.199153 0-24.746516 0.722526-34.319986-1.986947-30.526724-8.850944-57.62145-27.817252-69.904392-54.550714-10.476627-22.940201-8.850944-54.189451-8.850944-87.967543V151.911095c0-22.940201-1.264421-46.241665 5.599577-62.317869 9.392838-22.217675 28.359146-44.796613 49.854295-54.550714 5.780208-2.709473 13.005468-4.877051 18.785676-6.683366 3.793262-1.264421 8.309049-0.180632 11.018522-2.167578h768.045158c2.709473 2.167578 7.405892 1.083789 11.018522 2.167578 5.96084 1.806315 13.005468 3.973893 18.785676 6.683366 21.495149 9.934733 40.461457 32.333039 49.854296 54.550714 6.863997 16.076204 6.502734 39.5583 6.502734 62.317869v325.497972c1.083789 3.070736 1.986947 6.141471 1.986946 9.392838 0 16.79873-13.547363 30.346093-30.346092 30.346093s-30.346093-13.547363-30.346093-30.346093c0-0.541895 0.361263-1.083789 0.361263-1.625683" fill="" p-id="3556"></path></svg>