<?xml version="1.0" standalone="no"?><!DOCTYPE svg PUBLIC "-//W3C//DTD SVG 1.1//EN" "http://www.w3.org/Graphics/SVG/1.1/DTD/svg11.dtd"><svg t="1566192100154" class="icon" viewBox="0 0 1024 1024" version="1.1" xmlns="http://www.w3.org/2000/svg" p-id="2740" xmlns:xlink="http://www.w3.org/1999/xlink" width="200" height="200"><defs><style type="text/css"></style></defs><path d="M449.536 890.368H212.992c-37.376 0-68.096-30.72-68.096-68.096v-624.64c0-37.376 30.72-68.096 68.096-68.096H752.64c37.376 0 68.096 30.72 68.096 68.096v172.544c0 17.408 14.336 31.744 31.744 31.744 17.408 0 31.744-14.336 31.744-31.744V197.632c0-72.704-59.392-131.584-132.096-132.096H212.992c-72.704 0-131.584 59.392-132.096 132.096v624.64c0 72.704 59.392 131.584 132.096 132.096h236.544c17.408 0 31.744-14.336 31.744-31.744 0-17.92-14.336-32.256-31.744-32.256z" p-id="2741"></path><path d="M760.832 282.112c0-17.408-14.336-31.744-31.744-31.744h-486.4c-17.408 0-31.744 14.336-31.744 31.744 0 17.408 14.336 31.744 31.744 31.744h486.4c17.408 0 31.744-14.336 31.744-31.744zM448.512 593.408c0-17.408-14.336-31.744-31.744-31.744H239.616c-17.408 0-31.744 14.336-31.744 31.744 0 17.408 14.336 31.744 31.744 31.744h177.152c17.408 0 31.744-14.336 31.744-31.744zM240.64 717.824c-17.408 0-31.744 14.336-31.744 31.744 0 17.408 14.336 31.744 31.744 31.744h142.336c17.408 0 31.744-14.336 31.744-31.744 0.512-17.408-13.824-31.744-31.232-31.744H240.64zM551.424 442.88c0-17.408-14.336-31.744-31.744-31.744h-281.6c-17.408 0-31.744 14.336-31.744 31.744s14.336 31.744 31.744 31.744h281.6c17.408 0 31.744-14.336 31.744-31.744zM988.16 680.96c-2.56-19.968-7.68-39.936-14.848-58.368-4.608-12.288-10.752-24.576-17.408-36.352-8.704-14.336-27.136-18.944-41.472-10.752s-19.456 26.624-11.264 41.472c5.12 8.704 9.728 17.92 13.312 27.648 5.632 14.336 9.216 29.184 11.264 44.544 1.024 8.704 1.536 17.408 1.536 26.624 0 109.056-88.576 197.632-197.632 197.632s-197.632-88.576-197.632-197.632 88.576-197.632 197.632-197.632c34.304 0 68.608 9.216 98.304 26.112 7.168 4.096 15.36 5.12 23.04 3.072s14.336-7.168 18.432-14.336c4.096-7.168 5.12-15.36 3.072-23.04s-7.168-14.336-14.336-18.432c-39.424-22.528-83.968-34.304-129.024-34.304-142.848 0-259.072 116.224-259.072 259.072s116.224 258.56 259.072 258.56 258.56-116.224 258.56-259.072c0.512-11.776 0-23.04-1.536-34.816z" p-id="2742"></path><path d="M840.192 623.104c-10.752-10.752-28.672-10.752-39.936 0l-61.44 61.44-61.44-61.44c-10.752-10.752-28.672-10.752-39.936 0-10.752 10.752-10.752 28.672 0 39.936l61.44 61.44-61.44 61.44c-10.752 10.752-10.752 28.672 0 39.936 10.752 10.752 28.672 10.752 39.936 0l61.44-61.44 61.44 61.44c10.752 10.752 28.672 10.752 39.936 0 10.752-10.752 10.752-28.672 0-39.936l-61.44-61.44 61.44-61.44c11.264-11.264 11.264-29.184 0-39.936z" p-id="2743"></path></svg>