<?xml version="1.0" encoding="UTF-8"?>
<svg width="68px" height="48px" viewBox="0 0 68 48" version="1.1" xmlns="http://www.w3.org/2000/svg" xmlns:xlink="http://www.w3.org/1999/xlink">
    <!-- Generator: Sketch 55.2 (78181) - https://sketchapp.com -->
    <title>书</title>
    <desc>Created with Sketch.</desc>
    <g id="选择购课-" stroke="none" stroke-width="1" fill="none" fill-rule="evenodd">
        <g id="购课" transform="translate(-376.000000, -424.000000)">
            <g id="编组" fill="#FFFFFF" stroke="#F2F2F2">
                <g id="边框">
                    <rect id="矩形" x="0.5" y="0.5" width="1919" height="1079"></rect>
                </g>
            </g>
            <rect id="矩形" stroke="#0171C6" fill="#FFFFFF" x="275.5" y="384.5" width="269" height="145" rx="4"></rect>
            <g id="书" transform="translate(376.000000, 424.000000)" fill="#0091FF" fill-rule="nonzero">
                <path d="M1.57222477,47.5 C0.705213292,47.5 0,46.8263411 0,45.998356 L0,4.39461444 C0,3.76664106 0.414639118,3.19995115 1.03186911,2.98442098 C2.219642,2.56951896 8.59172994,0.5 17.4062226,0.5 C23.0479674,0.5 28.6015718,1.3339194 33.9126393,2.97848676 L33.9126392,2.97848674 C34.5619101,3.17839076 35.0014642,3.75600355 35,4.40736471 L35,45.6789984 C35,46.5072163 34.294936,47.1810406 33.4285082,47.1810406 C33.3121605,47.1810406 33.1953985,47.1686885 33.0815381,47.1441428 C31.1338153,46.7245693 24.1689762,45.3558682 16.3269659,45.3558682 C10.7652479,45.3558682 5.98454319,46.0459212 2.1175114,47.4069385 L2.11751134,47.4069385 C1.94292503,47.4684951 1.75828742,47.5 1.57217846,47.5 L1.57222477,47.5 Z M2.37604606,4.93912912 L2.37604606,44.9208521 C6.29753225,43.7037012 10.9837531,43.0871308 16.3268262,43.0871308 C23.4094253,43.0871308 29.7969452,44.1694421 32.6239558,44.728924 L32.6239558,4.96785096 C27.7184485,3.50824859 22.602102,2.76871321 17.4061008,2.76871321 C9.89614043,2.76871321 4.29131428,4.32585961 2.37604606,4.93911075 L2.37604606,4.93912912 Z" id="形状"></path>
                <path d="M34.7049025,47.5 C33.8413353,47.5 33.1388405,46.8263411 33.1388405,45.998356 L33.1388405,4.39461444 C33.1388405,3.76656145 33.5519972,3.19979193 34.1668596,2.98442098 C35.3497478,2.56959796 41.6964324,0.5 50.4759086,0.5 C56.0953239,0.5 61.6266552,1.3339194 66.9168794,2.97848676 L66.9168793,2.97848676 C67.563622,3.17834179 68.0014746,3.75597294 67.9999963,4.40736473 L67.9999963,45.6789985 C67.9999963,46.5072164 67.2979066,47.1810406 66.4346716,47.1810406 C66.3188685,47.1810406 66.2024879,47.1686885 66.0890799,47.1440636 C64.1491777,46.7245692 57.2117964,45.3558687 49.4010033,45.3558687 C43.8614629,45.3558687 39.0996031,46.0459216 35.2479335,47.4069389 L35.2479335,47.4069389 C35.0741079,47.4685292 34.8902517,47.5 34.7049319,47.5 L34.7049025,47.5 Z M35.5056136,4.93912912 L35.5056136,44.9207908 C39.4116042,43.70364 44.0792533,43.0871431 49.4010365,43.0871431 C56.4552437,43.0871431 62.8175162,44.1694544 65.63336,44.7289363 L65.63336,4.96786321 C60.7471743,3.50826084 55.6513192,2.76864584 50.4760874,2.76864584 C42.9957057,2.76864584 37.413337,4.32587186 35.5056136,4.939123 L35.5056136,4.93912912 Z M8.0400683,13.8986291 L8.03940754,13.8964913 C7.86710744,13.2695468 8.27671283,12.6323873 8.93824544,12.4975416 C10.1374881,12.2531138 12.1424824,11.8982301 14.5743411,11.6766052 C19.3194503,11.2440463 23.4882944,11.499005 26.9896206,12.433882 C27.64677,12.6093443 28.0169816,13.2757994 27.7966881,13.8947459 C27.5949832,14.4615149 26.9675676,14.7833042 26.3656719,14.6229641 C19.9166441,12.9045283 12.2389865,14.1524776 9.42972284,14.7196428 C8.8120528,14.8442717 8.2008249,14.483766 8.04009111,13.8986268 L8.0400683,13.8986291 Z M8.0400683,23.1544112 L8.03940754,23.1522734 C7.86710744,22.5253288 8.27671283,21.8880897 8.93824544,21.7533237 C10.1374881,21.5088959 12.1424824,21.1540121 14.5743411,20.9323873 C19.3194503,20.4998284 23.4882944,20.7547081 26.9896206,21.6896641 C27.64677,21.8651264 28.0169816,22.5315815 27.7966881,23.150528 C27.5949832,23.7172969 26.9675676,24.0390863 26.3656719,23.8787461 C19.9166441,22.1603103 12.2389865,23.4082597 9.42972284,23.9754248 C8.8120528,24.1001327 8.2008249,23.7395481 8.04009111,23.1544088 L8.0400683,23.1544112 Z M8.0400683,31.7101519 L8.03940754,31.7080141 C7.86710744,31.0810696 8.27671283,30.4439101 8.93824544,30.3090644 C10.1374881,30.0646366 12.1424824,29.7099109 14.5743411,29.4882076 C19.3194503,29.0555691 23.4882944,29.3106074 26.9896206,30.2454048 C27.64677,30.4208671 28.0169816,31.0874018 27.7966881,31.7062687 C27.5949832,32.2730376 26.9675676,32.5949005 26.3656719,32.4344869 C19.9166441,30.7160511 12.2389865,31.9640004 9.42972284,32.5311656 C8.8120528,32.6558735 8.2008249,32.2952888 8.04009111,31.7101496 L8.0400683,31.7101519 Z" id="形状"></path>
                <path d="M40.0401939,13.9167601 L40.0396948,13.9146307 C39.8661844,13.29017 40.2785003,12.6555348 40.9447625,12.5212234 C42.1525123,12.2777639 44.1715061,11.9242861 46.6205299,11.7035393 C51.3988852,11.2726941 55.5969663,11.5266428 59.1230144,12.457816 C59.7848634,12.6325831 60.1576689,13.2963979 59.9357509,13.9128923 C59.7327122,14.4774158 59.1008902,14.7979303 58.4947668,14.6382254 C52.0003765,12.9265976 44.2686623,14.1696029 41.4397307,14.734521 C40.8178051,14.8586562 40.2021173,14.4995788 40.0401709,13.9167577 L40.0401939,13.9167601 Z M40.0401939,23.1358728 L40.0396948,23.1337434 C39.8661844,22.5092827 40.2785003,21.8745682 40.9447625,21.7403361 C42.1525123,21.4968767 44.1715061,21.1433989 46.6205299,20.9226521 C51.3988852,20.4918069 55.5969663,20.7456768 59.1230144,21.6769287 C59.7848634,21.8516958 60.1576689,22.5155106 59.9357509,23.132005 C59.7327122,23.6965285 59.1008902,24.017043 58.4947668,23.8573381 C52.0003765,22.1457104 44.2686623,23.3887156 41.4397307,23.9536338 C40.8178051,24.0778476 40.2021173,23.7186915 40.0401709,23.1358704 L40.0401939,23.1358728 Z M40.0401939,31.6577176 L40.0396948,31.6555883 C39.8661844,31.0311275 40.2785003,30.3964924 40.9447625,30.2621809 C42.1525123,30.0187215 44.1715061,29.6654011 46.6205299,29.4445762 C51.3988852,29.0136517 55.5969663,29.2676796 59.1230144,30.1987735 C59.7848634,30.3735406 60.1576689,31.0374347 59.9357509,31.6538498 C59.7327122,32.2183733 59.1008902,32.538961 58.4947668,32.3791829 C52.0003765,30.6675552 44.2686623,31.9105604 41.4397307,32.4754786 C40.8178051,32.5996924 40.2021173,32.2405363 40.0401709,31.6577153 L40.0401939,31.6577176 Z" id="形状"></path>
            </g>
        </g>
    </g>
</svg>