<?xml version="1.0" standalone="no"?><!DOCTYPE svg PUBLIC "-//W3C//DTD SVG 1.1//EN" "http://www.w3.org/Graphics/SVG/1.1/DTD/svg11.dtd"><svg class="icon" width="200px" height="200.00px" viewBox="0 0 1024 1024" version="1.1" xmlns="http://www.w3.org/2000/svg"><path d="M512 0C228.266667 0 0 228.266667 0 512s228.266667 512 512 512 512-228.266667 512-512S795.733333 0 512 0z m-102.4 465.066667v-160h76.8c0 89.6-2.133333 183.466667-8.533333 281.6-25.6-6.4-51.2-8.533333-74.666667-8.533334 2.133333-34.133333 4.266667-70.4 6.4-113.066666zM166.4 706.133333c10.666667-2.133333 23.466667-4.266667 40.533333-6.4 19.2-2.133333 34.133333-2.133333 40.533334-2.133333v-172.8H179.2v-85.333333h68.266667v-142.933334H177.066667v-85.333333h221.866666v85.333333h-64v142.933334h61.866667v85.333333h-61.866667v160c8.533333-2.133333 19.2-4.266667 34.133334-8.533333 14.933333-2.133333 27.733333-4.266667 34.133333-6.4 0 10.666667 0 25.6-2.133333 44.8 0 21.333333 0 36.266667-2.133334 46.933333-74.666667 8.533333-147.2 19.2-221.866666 32l-10.666667-87.466667z m298.666667 140.8c-8.533333-6.4-19.2-14.933333-34.133334-29.866666-17.066667-12.8-29.866667-23.466667-38.4-32 76.8-61.866667 115.2-155.733333 115.2-283.733334V177.066667h85.333334v341.333333c0 138.666667-42.666667 247.466667-128 328.533333z m394.666666-34.133333H580.266667v-81.066667h96v-187.733333h-68.266667v-85.333333h68.266667v-164.266667h-72.533334v-85.333333h238.933334v85.333333H768v164.266667h68.266667v85.333333H768v187.733333h91.733333v81.066667z" /></svg>