<?xml version="1.0" standalone="no"?><!DOCTYPE svg PUBLIC "-//W3C//DTD SVG 1.1//EN" "http://www.w3.org/Graphics/SVG/1.1/DTD/svg11.dtd"><svg t="1565179891518" class="icon" viewBox="0 0 1024 1024" version="1.1" xmlns="http://www.w3.org/2000/svg" p-id="9102" xmlns:xlink="http://www.w3.org/1999/xlink" width="200" height="200"><defs><style type="text/css"></style></defs><path d="M577.163636 488.727273l148.945455-148.945455c18.618182-18.618182 18.618182-46.545455 0-65.163636-18.618182-18.618182-46.545455-18.618182-65.163636 0l-139.636364 139.636363-139.636364-139.636363c-18.618182-18.618182-46.545455-18.618182-65.163636 0s-18.618182 46.545455 0 65.163636l148.945454 148.945455H339.781818c-18.618182 0-37.236364 13.963636-37.236363 37.236363s13.963636 37.236364 37.236363 37.236364h130.327273v46.545455H339.781818c-18.618182 0-37.236364 13.963636-37.236363 37.236363s13.963636 37.236364 37.236363 37.236364h130.327273v93.090909c0 27.927273 18.618182 46.545455 46.545454 46.545454s46.545455-18.618182 46.545455-46.545454v-93.090909h130.327273c18.618182 0 37.236364-13.963636 37.236363-37.236364s-13.963636-37.236364-37.236363-37.236363h-130.327273v-46.545455h130.327273c18.618182 0 37.236364-13.963636 37.236363-37.236364s-13.963636-37.236364-37.236363-37.236363h-116.363637zM512 1024C228.072727 1024 0 795.927273 0 512S228.072727 0 512 0s512 228.072727 512 512-228.072727 512-512 512z" p-id="9103"></path></svg>