<?xml version="1.0" standalone="no"?><!DOCTYPE svg PUBLIC "-//W3C//DTD SVG 1.1//EN" "http://www.w3.org/Graphics/SVG/1.1/DTD/svg11.dtd"><svg t="1578622023581" class="icon" viewBox="0 0 1024 1024" version="1.1" xmlns="http://www.w3.org/2000/svg" p-id="6668" xmlns:xlink="http://www.w3.org/1999/xlink" width="200" height="200"><defs><style type="text/css"></style></defs><path d="M768.1 320l170.7 0.7c9.3 0 16.9-8.8 16.9-19.6 0-4.1-1.1-7.9-3-11-0.8-1.9-1.8-3.6-3.1-5.2l-216.5-213c-2.5-2.9-5.5-4.6-8.7-5.3-1.3-0.4-2.7-0.6-4.2-0.6-9.3 0-16.9 8.8-16.9 19.6l0.8 170.5c0 15.2 15.7 63.9 64 63.9z" p-id="6669"></path><path d="M911 384.6c-82.9-0.6-156.6-0.9-206.9-0.9-20.1 0-64-17.4-64-63.8v-192c0-64-64-64.1-64-64.1l-448.1 0.1c-43 0-64 27.1-64 64v761c0 28.8 21 70.6 64 70.7h768.1c29 0 64-35.1 64-64.1l-0.8-462.2c0.1-26.7-21.5-48.5-48.3-48.7zM326.4 803.9l-0.5 0.5c-13.6 13.6-35.6 13.6-49.2 0L142.6 670.3c-2.9-2.9-5.2-6.3-6.9-9.9-9.6-13.8-8.2-32.9 4.1-45.2l123.5-123.5c13.8-13.8 36.3-13.8 50.2 0l0.5 0.5c13.8 13.8 13.8 36.3 0 50.2l-100 99.9 112.4 112.4c13.6 13.6 13.6 35.6 0 49.2z m140.2-28.6c-18.2 18.2-65.8 26.1-90.6 1.4l-0.9-0.9c-24.8-24.8-28.2-61.5 1.1-90.8l181.1-181.1c28.6-28.6 65.7-24.8 90.5-0.1 40.6 40.4 15.6 74.8 3.7 86.7L466.6 775.3z m420.3-116c-1.7 3.6-3.9 6.9-6.9 9.9L745.9 803.3c-13.6 13.6-35.6 13.6-49.2 0l-0.5-0.5c-13.6-13.6-13.6-35.6 0-49.2l112.4-112.4-99.9-99.9c-13.8-13.8-13.8-36.3 0-50.2l0.5-0.5c13.8-13.8 36.3-13.8 50.2 0l123.5 123.5c12.2 12.3 13.6 31.4 4 45.2z" p-id="6670"></path></svg>