<?xml version="1.0" standalone="no"?><!DOCTYPE svg PUBLIC "-//W3C//DTD SVG 1.1//EN" "http://www.w3.org/Graphics/SVG/1.1/DTD/svg11.dtd"><svg t="1579073303211" class="icon" viewBox="0 0 1024 1024" version="1.1" xmlns="http://www.w3.org/2000/svg" p-id="2738" xmlns:xlink="http://www.w3.org/1999/xlink" width="200" height="200"><defs><style type="text/css"></style></defs><path d="M729.6 215.692h118.69a59.345 59.345 0 0 1 59.346 59.345v596.527a59.345 59.345 0 0 1-59.345 59.345H175.709a59.345 59.345 0 0 1-59.345-59.345V275.037a59.345 59.345 0 0 1 59.345-59.345H294.4v-39.983a59.345 59.345 0 0 1 118.69 0v39.983h197.82v-39.983a59.345 59.345 0 0 1 118.69 0v39.983zM363.636 450.7a49.455 49.455 0 0 0-49.454 49.43v0.466c0 27.3 22.132 49.455 49.454 49.455h296.728a49.455 49.455 0 0 0 49.454-49.455v-0.465a49.455 49.455 0 0 0-49.454-49.455H363.636z m0 182.225a49.455 49.455 0 0 0-49.454 49.431v0.42c0 27.321 22.132 49.454 49.454 49.454H502.11a49.455 49.455 0 0 0 49.455-49.455v-0.419a49.455 49.455 0 0 0-49.455-49.454H363.636z" p-id="2739"></path></svg>