<?xml version="1.0" standalone="no"?><!DOCTYPE svg PUBLIC "-//W3C//DTD SVG 1.1//EN" "http://www.w3.org/Graphics/SVG/1.1/DTD/svg11.dtd"><svg t="1573718055699" class="icon" viewBox="0 0 1024 1024" version="1.1" xmlns="http://www.w3.org/2000/svg" p-id="2019" xmlns:xlink="http://www.w3.org/1999/xlink" width="200" height="200"><defs><style type="text/css"></style></defs><path d="M511.998465 65.325821c-246.632143 0-446.664969 199.957101-446.664969 446.662923 0 246.687402 199.960171 446.684412 446.664969 446.684412 246.706845 0 446.667016-199.995987 446.667016-446.684412C958.665481 265.282922 758.70531 65.325821 511.998465 65.325821L511.998465 65.325821zM809.776476 623.673405 511.998465 623.673405c-18.682501 0-37.222763-18.538215-37.222763-37.220716L474.775702 214.211756c0-18.682501 17.704221-31.079856 36.387745-31.079856 18.683525 0 38.057781 12.397355 38.057781 31.079856l0 335.020216L809.776476 549.231973c18.681478 0 37.222763 18.535145 37.222763 37.220716C846.999239 605.13519 828.457954 623.673405 809.776476 623.673405L809.776476 623.673405zM809.776476 623.673405" p-id="2020"></path></svg>