<?xml version="1.0" standalone="no"?><!DOCTYPE svg PUBLIC "-//W3C//DTD SVG 1.1//EN" "http://www.w3.org/Graphics/SVG/1.1/DTD/svg11.dtd"><svg t="1565179775199" class="icon" viewBox="0 0 1026 1024" version="1.1" xmlns="http://www.w3.org/2000/svg" p-id="7049" xmlns:xlink="http://www.w3.org/1999/xlink" width="200.390625" height="200"><defs><style type="text/css"></style></defs><path d="M94.912 1002.432 12.864 1002.432c-6.592 0-11.904-5.504-11.904-12.352l0-240.832c0-6.848 5.312-12.352 11.904-12.352l82.048 0c6.592 0 11.904 5.504 11.904 12.352l0 240.832C106.816 996.864 101.504 1002.432 94.912 1002.432" p-id="7050"></path><path d="M152.704 978.688l0-227.072c0 0 0-15.36 13.632-23.104 13.632-7.68 85.44-35.904 85.44-35.904s56.96-33.344 110.272-11.52c53.248 21.824 76.8 33.344 95.36 33.344l82.944 0c0 0 60.736 8.96 60.736 56.448s-42.112 74.432-42.112 74.432-127.552-6.144-169.664-19.072c0 0-43.328 11.392-4.992 24.192 38.4 12.8 227.968 30.784 370.368-7.68 142.464-38.528 237.824-61.568 257.664-23.104 19.776 38.464 22.272 69.248-37.184 85.952s-263.808 82.112-293.568 96.832c-29.696 14.72-76.8 23.744-146.176 21.184-69.312-2.56-286.144-25.664-344.32-21.184C191.104 1002.432 152.704 1010.752 152.704 978.688" p-id="7051"></path><path d="M554.56 527.808 554.56 366.016c-60.8-14.4-105.408-36.224-133.824-65.408C392.32 271.36 378.176 235.904 378.176 194.176c0-42.176 16-77.632 48.128-106.368 32.128-28.672 74.816-45.248 128.192-49.6L554.496 0 622.08 0l0 38.208c49.344 4.928 88.576 18.88 117.76 41.92 29.184 23.04 47.808 53.824 55.872 92.48l-117.76 12.736C670.784 154.944 652.16 134.4 622.08 123.52l0 150.976c74.496 16.704 125.184 38.4 152.192 65.024 27.008 26.688 40.512 60.864 40.512 102.528 0 46.592-16.96 85.888-50.944 117.76-33.984 31.936-81.28 51.52-141.76 58.688l0 72.192L554.56 690.688 554.56 620.416C500.928 615.04 457.344 598.464 423.808 570.624c-33.472-27.776-54.912-67.008-64.256-117.76l121.472-10.816C486.016 462.656 495.296 480.384 508.992 495.36S537.792 521.088 554.56 527.808M554.56 122.368C536.256 127.552 521.664 136.256 510.848 148.672c-10.88 12.352-16.32 25.984-16.32 40.896 0 13.632 4.992 26.368 14.848 38.016C519.36 239.296 534.4 248.768 554.56 256L554.56 122.368zM622.08 533.184c23.296-3.648 42.176-12.544 56.768-26.816 14.592-14.272 21.888-31.04 21.888-50.432 0-17.216-6.144-32.064-18.432-44.544C670.08 398.912 649.984 389.312 622.08 382.656L622.08 533.184z" p-id="7052"></path></svg>